# xmcd CD database file
#
# Track frame offsets:
#	150
#	9610
#	19560
#	30820
#	39237
#	49550
#	60990
#	69522
#	81005
#	94070
#	107362
#	119472
#	131587
#	142730
#	152195
#	165515
#	173260
#	190472
#	204805
#	215105
#	226390
#	237192
#	245860
#	257917
#	265040
#	276375
#	285595
#	297965
#	307945
#	321775
#
# Disc length: 4469 seconds
#
# Revision: 0
# Processed by: cddbd v1.4PL0 Copyright (c) Steve Scherf et al.
# Submitted via: CDex 1.50
#
DISCID=9111731e
DTITLE=Nat King Cole - Broadcast transcription 1941-1944
DYEAR=1900
DGENRE=Jazz
TTITLE0=Swingin'  the blues
TTITLE1=what'cha know joe
TTITLE2=Do nothin' till you hear from me
TTITLE3=Hit that jive jack
TTITLE4=Poor butterfly
TTITLE5=These foolish thing
TTITLE6=Rosetta
TTITLE7=The man i love
TTITLE8=Liza
TTITLE9=I'm in the mood for love
TTITLE10=D-Day
TTITLE11=Smooth Stalin
TTITLE12=Ain't misbehave
TTITLE13=Boogie a la King
TTITLE14=Knock me a kiss
TTITLE15=Sweet Georgia Brown
TTITLE16=Blues in the night
TTITLE17=Don't blame me
TTITLE18=Three little word
TTITLE19=Body and soul
TTITLE20=How high the moon
TTITLE21=I got ryithme
TTITLE22=Sweet lorraine
TTITLE23=Honeysuckle Rose
TTITLE24=The man i love
TTITLE25=Brign another drink
TTITLE26=I can't give you anything but love
TTITLE27=Miss Thing
TTITLE28=Don't blame me
TTITLE29=Another you've gone
EXTD=
EXTT0=
EXTT1=
EXTT2=
EXTT3=
EXTT4=
EXTT5=
EXTT6=
EXTT7=
EXTT8=
EXTT9=
EXTT10=
EXTT11=
EXTT12=
EXTT13=
EXTT14=
EXTT15=
EXTT16=
EXTT17=
EXTT18=
EXTT19=
EXTT20=
EXTT21=
EXTT22=
EXTT23=
EXTT24=
EXTT25=
EXTT26=
EXTT27=
EXTT28=
EXTT29=
PLAYORDER=
